<mxfile host="app.diagrams.net" agent="Mozilla/5.0 (Windows NT 10.0; Win64; x64) AppleWebKit/537.36 (KHTML, like Gecko) Chrome/133.0.0.0 Safari/537.36 Edg/133.0.0.0" version="26.0.13">
  <diagram name="Page-1" id="--uHE6u8wF23yz-1II8n">
    <mxGraphModel dx="4200" dy="2276" grid="1" gridSize="10" guides="1" tooltips="1" connect="1" arrows="1" fold="1" page="1" pageScale="1" pageWidth="3300" pageHeight="4681" math="0" shadow="0">
      <root>
        <mxCell id="0" />
        <mxCell id="1" parent="0" />
        <mxCell id="40jXn-iaDy37cglONEbA-7" style="edgeStyle=orthogonalEdgeStyle;rounded=0;orthogonalLoop=1;jettySize=auto;html=1;exitX=0.5;exitY=1;exitDx=0;exitDy=0;endArrow=none;endFill=0;" parent="1" source="40jXn-iaDy37cglONEbA-1" target="40jXn-iaDy37cglONEbA-4" edge="1">
          <mxGeometry relative="1" as="geometry" />
        </mxCell>
        <mxCell id="40jXn-iaDy37cglONEbA-1" value="&lt;span class=&quot;hljs-keyword&quot;&gt;Load&lt;/span&gt; Balancer" style="rounded=0;whiteSpace=wrap;html=1;" parent="1" vertex="1">
          <mxGeometry x="460" y="280" width="200" height="60" as="geometry" />
        </mxCell>
        <mxCell id="40jXn-iaDy37cglONEbA-16" style="edgeStyle=orthogonalEdgeStyle;rounded=0;orthogonalLoop=1;jettySize=auto;html=1;exitX=0.5;exitY=1;exitDx=0;exitDy=0;entryX=0.5;entryY=0;entryDx=0;entryDy=0;endArrow=none;endFill=0;" parent="1" source="40jXn-iaDy37cglONEbA-4" target="40jXn-iaDy37cglONEbA-11" edge="1">
          <mxGeometry relative="1" as="geometry">
            <Array as="points">
              <mxPoint x="560" y="550" />
              <mxPoint x="440" y="550" />
              <mxPoint x="440" y="620" />
            </Array>
          </mxGeometry>
        </mxCell>
        <mxCell id="FjMfvr7qfYq_sYoSQsMK-2" style="edgeStyle=orthogonalEdgeStyle;rounded=0;orthogonalLoop=1;jettySize=auto;html=1;exitX=0.5;exitY=1;exitDx=0;exitDy=0;entryX=0.5;entryY=0;entryDx=0;entryDy=0;endArrow=none;startFill=0;" edge="1" parent="1" source="40jXn-iaDy37cglONEbA-4" target="FjMfvr7qfYq_sYoSQsMK-1">
          <mxGeometry relative="1" as="geometry">
            <Array as="points">
              <mxPoint x="560" y="550" />
              <mxPoint x="720" y="550" />
              <mxPoint x="720" y="615" />
            </Array>
          </mxGeometry>
        </mxCell>
        <mxCell id="40jXn-iaDy37cglONEbA-4" value="API Node &lt;span class=&quot;hljs-number&quot;&gt;1&lt;/span&gt;" style="rounded=0;whiteSpace=wrap;html=1;" parent="1" vertex="1">
          <mxGeometry x="500" y="470" width="120" height="60" as="geometry" />
        </mxCell>
        <mxCell id="40jXn-iaDy37cglONEbA-9" style="edgeStyle=orthogonalEdgeStyle;rounded=0;orthogonalLoop=1;jettySize=auto;html=1;exitX=0.5;exitY=0;exitDx=0;exitDy=0;entryX=0.5;entryY=0;entryDx=0;entryDy=0;curved=0;strokeWidth=1;endArrow=none;endFill=0;" parent="1" source="40jXn-iaDy37cglONEbA-5" target="40jXn-iaDy37cglONEbA-6" edge="1">
          <mxGeometry relative="1" as="geometry">
            <Array as="points">
              <mxPoint x="350" y="430" />
              <mxPoint x="770" y="430" />
            </Array>
          </mxGeometry>
        </mxCell>
        <mxCell id="40jXn-iaDy37cglONEbA-15" style="edgeStyle=orthogonalEdgeStyle;rounded=0;orthogonalLoop=1;jettySize=auto;html=1;exitX=0.5;exitY=1;exitDx=0;exitDy=0;entryX=0.5;entryY=1;entryDx=0;entryDy=0;endArrow=none;endFill=0;" parent="1" source="40jXn-iaDy37cglONEbA-5" target="40jXn-iaDy37cglONEbA-6" edge="1">
          <mxGeometry relative="1" as="geometry" />
        </mxCell>
        <mxCell id="40jXn-iaDy37cglONEbA-5" value="API Node &lt;span class=&quot;hljs-number&quot;&gt;1&lt;/span&gt;" style="rounded=0;whiteSpace=wrap;html=1;" parent="1" vertex="1">
          <mxGeometry x="290" y="470" width="120" height="60" as="geometry" />
        </mxCell>
        <mxCell id="40jXn-iaDy37cglONEbA-6" value="API Node &lt;span class=&quot;hljs-number&quot;&gt;1&lt;/span&gt;" style="rounded=0;whiteSpace=wrap;html=1;" parent="1" vertex="1">
          <mxGeometry x="710" y="470" width="120" height="60" as="geometry" />
        </mxCell>
        <mxCell id="40jXn-iaDy37cglONEbA-14" style="edgeStyle=orthogonalEdgeStyle;rounded=0;orthogonalLoop=1;jettySize=auto;html=1;exitX=0.5;exitY=1;exitDx=0;exitDy=0;entryX=0.5;entryY=0;entryDx=0;entryDy=0;" parent="1" source="40jXn-iaDy37cglONEbA-11" target="40jXn-iaDy37cglONEbA-12" edge="1">
          <mxGeometry relative="1" as="geometry">
            <Array as="points">
              <mxPoint x="380" y="700" />
              <mxPoint x="380" y="735" />
              <mxPoint x="290" y="735" />
            </Array>
          </mxGeometry>
        </mxCell>
        <mxCell id="40jXn-iaDy37cglONEbA-11" value="Redis" style="rounded=0;whiteSpace=wrap;html=1;" parent="1" vertex="1">
          <mxGeometry x="360" y="620" width="140" height="80" as="geometry" />
        </mxCell>
        <mxCell id="40jXn-iaDy37cglONEbA-12" value="External API" style="rounded=0;whiteSpace=wrap;html=1;" parent="1" vertex="1">
          <mxGeometry x="220" y="770" width="140" height="80" as="geometry" />
        </mxCell>
        <mxCell id="40jXn-iaDy37cglONEbA-19" style="edgeStyle=orthogonalEdgeStyle;rounded=0;orthogonalLoop=1;jettySize=auto;html=1;exitX=0.25;exitY=0;exitDx=0;exitDy=0;entryX=0.5;entryY=1;entryDx=0;entryDy=0;endArrow=none;endFill=0;" parent="1" source="40jXn-iaDy37cglONEbA-13" target="40jXn-iaDy37cglONEbA-11" edge="1">
          <mxGeometry relative="1" as="geometry">
            <Array as="points">
              <mxPoint x="508" y="790" />
              <mxPoint x="430" y="790" />
            </Array>
          </mxGeometry>
        </mxCell>
        <mxCell id="FjMfvr7qfYq_sYoSQsMK-9" style="edgeStyle=orthogonalEdgeStyle;rounded=0;orthogonalLoop=1;jettySize=auto;html=1;exitX=0.75;exitY=0;exitDx=0;exitDy=0;entryX=0.5;entryY=1;entryDx=0;entryDy=0;endArrow=none;startFill=0;" edge="1" parent="1" source="40jXn-iaDy37cglONEbA-13" target="FjMfvr7qfYq_sYoSQsMK-1">
          <mxGeometry relative="1" as="geometry" />
        </mxCell>
        <mxCell id="40jXn-iaDy37cglONEbA-13" value="PostgreSQL / DynamoDB" style="rounded=0;whiteSpace=wrap;html=1;" parent="1" vertex="1">
          <mxGeometry x="460" y="870" width="190" height="120" as="geometry" />
        </mxCell>
        <mxCell id="40jXn-iaDy37cglONEbA-20" value="(NGINX / AWS ALB)" style="text;html=1;align=center;verticalAlign=middle;resizable=0;points=[];autosize=1;strokeColor=none;fillColor=none;" parent="1" vertex="1">
          <mxGeometry x="670" y="295" width="130" height="30" as="geometry" />
        </mxCell>
        <mxCell id="40jXn-iaDy37cglONEbA-21" value="(Fastify / Fiber)" style="text;html=1;align=center;verticalAlign=middle;resizable=0;points=[];autosize=1;strokeColor=none;fillColor=none;" parent="1" vertex="1">
          <mxGeometry x="850" y="485" width="100" height="30" as="geometry" />
        </mxCell>
        <mxCell id="40jXn-iaDy37cglONEbA-22" value="(User &amp;amp; Balance Check)" style="text;whiteSpace=wrap;html=1;" parent="1" vertex="1">
          <mxGeometry x="75" y="800" width="160" height="40" as="geometry" />
        </mxCell>
        <mxCell id="40jXn-iaDy37cglONEbA-23" value="&lt;font style=&quot;font-size: 14px;&quot;&gt;&lt;strong data-end=&quot;243&quot; data-start=&quot;235&quot;&gt;User&lt;/strong&gt; → ส่ง Request มายัง API Gateway หรือ Load Balancer&lt;/font&gt;" style="text;html=1;align=center;verticalAlign=middle;resizable=0;points=[];autosize=1;strokeColor=#d6b656;fillColor=#fff2cc;" parent="1" vertex="1">
          <mxGeometry x="600" y="210" width="390" height="30" as="geometry" />
        </mxCell>
        <mxCell id="40jXn-iaDy37cglONEbA-24" value="&lt;strong data-end=&quot;334&quot; data-start=&quot;299&quot;&gt;Load Balancer (NGINX)&lt;/strong&gt; → กระจายโหลดไปยัง API Servers" style="text;html=1;align=center;verticalAlign=middle;resizable=0;points=[];autosize=1;strokeColor=#d6b656;fillColor=#fff2cc;" parent="1" vertex="1">
          <mxGeometry x="85" y="295" width="330" height="30" as="geometry" />
        </mxCell>
        <mxCell id="40jXn-iaDy37cglONEbA-25" value="&lt;strong data-end=&quot;402&quot; data-start=&quot;369&quot;&gt;API Servers (Fastify)&lt;/strong&gt; → ตรวจสอบ User และ Balance" style="text;html=1;align=center;verticalAlign=middle;resizable=0;points=[];autosize=1;strokeColor=#d6b656;fillColor=#fff2cc;" parent="1" vertex="1">
          <mxGeometry x="790" y="430" width="310" height="30" as="geometry" />
        </mxCell>
        <mxCell id="40jXn-iaDy37cglONEbA-26" value="&lt;strong data-end=&quot;457&quot; data-start=&quot;434&quot;&gt;Redis (Cache)&lt;/strong&gt; → เพื่อลดการเรียก API ภายนอก" style="text;html=1;align=center;verticalAlign=middle;resizable=0;points=[];autosize=1;strokeColor=#d6b656;fillColor=#fff2cc;" parent="1" vertex="1">
          <mxGeometry x="75" y="630" width="270" height="30" as="geometry" />
        </mxCell>
        <mxCell id="40jXn-iaDy37cglONEbA-27" value="&lt;strong data-end=&quot;508&quot; data-start=&quot;491&quot;&gt;External APIs&lt;/strong&gt; → ตรวจสอบข้อมูลจากภายนอก" style="text;html=1;align=center;verticalAlign=middle;resizable=0;points=[];autosize=1;strokeColor=#d6b656;fillColor=#fff2cc;" parent="1" vertex="1">
          <mxGeometry x="90" y="870" width="260" height="30" as="geometry" />
        </mxCell>
        <mxCell id="40jXn-iaDy37cglONEbA-28" value="&lt;strong data-end=&quot;574&quot; data-start=&quot;538&quot;&gt;Database (PostgreSQL / DynamoDB)&lt;/strong&gt; → เก็บข้อมูลหลัก" style="text;html=1;align=center;verticalAlign=middle;resizable=0;points=[];autosize=1;strokeColor=#d6b656;fillColor=#fff2cc;" parent="1" vertex="1">
          <mxGeometry x="680" y="890" width="320" height="30" as="geometry" />
        </mxCell>
        <mxCell id="40jXn-iaDy37cglONEbA-29" value="&lt;strong data-start=&quot;596&quot; data-end=&quot;632&quot;&gt;Message Queue (Kafka / RabbitMQ)&lt;/strong&gt; → สำหรับ async processing" style="text;whiteSpace=wrap;html=1;fillColor=#fff2cc;strokeColor=#d6b656;" parent="1" vertex="1">
          <mxGeometry x="820" y="630" width="380" height="40" as="geometry" />
        </mxCell>
        <mxCell id="FjMfvr7qfYq_sYoSQsMK-1" value="&lt;span style=&quot;--tw-scale-x: 1; --tw-scale-y: 1; --tw-pan-x: ; --tw-pan-y: ; --tw-pinch-zoom: ; --tw-scroll-snap-strictness: proximity; --tw-ordinal: ; --tw-slashed-zero: ; --tw-numeric-figure: ; --tw-numeric-spacing: ; --tw-numeric-fraction: ; --tw-ring-inset: ; --tw-ring-offset-width: 0px; --tw-ring-offset-color: light-dark(#fff, #000000); --tw-ring-color: rgb(59 130 246 / .5); --tw-ring-offset-shadow: 0 0 #0000; --tw-ring-shadow: 0 0 #0000; --tw-shadow: 0 0 #0000; --tw-shadow-colored: 0 0 #0000; --tw-blur: ; --tw-brightness: ; --tw-contrast: ; --tw-grayscale: ; --tw-hue-rotate: ; --tw-invert: ; --tw-saturate: ; --tw-sepia: ; --tw-drop-shadow: ; --tw-backdrop-blur: ; --tw-backdrop-brightness: ; --tw-backdrop-contrast: ; --tw-backdrop-grayscale: ; --tw-backdrop-hue-rotate: ; --tw-backdrop-invert: ; --tw-backdrop-opacity: ; --tw-backdrop-saturate: ; --tw-backdrop-sepia: ; text-align: left;&quot; data-start=&quot;596&quot; data-end=&quot;632&quot;&gt;Message Queue&lt;/span&gt;" style="rounded=0;whiteSpace=wrap;html=1;" vertex="1" parent="1">
          <mxGeometry x="650" y="615" width="150" height="85" as="geometry" />
        </mxCell>
        <mxCell id="FjMfvr7qfYq_sYoSQsMK-4" value="&lt;font style=&quot;font-size: 20px;&quot;&gt;User -&amp;gt; API Gateway: ส่ง Request ตรวจสอบ User และ Balance&lt;br&gt;API Gateway -&amp;gt; API Server: ส่งต่อ Request ไปยัง Backend&lt;br&gt;API Server -&amp;gt; Redis: ตรวจสอบ Cache ว่ามีข้อมูลอยู่หรือไม่&lt;br&gt;alt ข้อมูลอยู่ใน Cache&lt;br&gt;  Redis -&amp;gt; API Server: คืนค่าจาก Cache&lt;br&gt;else ไม่มีข้อมูลใน Cache&lt;br&gt;  API Server -&amp;gt; External API: ขอข้อมูล User และ Balance&lt;br&gt;  External API -&amp;gt; API Server: ส่งผลลัพธ์กลับมา&lt;br&gt;  API Server -&amp;gt; Redis: เก็บผลลัพธ์ลง Cache&lt;br&gt;end&lt;br&gt;API Server -&amp;gt; User: ส่ง Response กลับไป&lt;/font&gt;" style="text;whiteSpace=wrap;html=1;fillColor=#fff2cc;strokeColor=#d6b656;" vertex="1" parent="1">
          <mxGeometry x="1410" y="260" width="650" height="300" as="geometry" />
        </mxCell>
        <UserObject label="&lt;table&gt;&lt;thead data-start=&quot;740&quot; data-end=&quot;787&quot;&gt;&lt;tr data-start=&quot;740&quot; data-end=&quot;787&quot;&gt;&lt;th data-start=&quot;751&quot; data-end=&quot;769&quot;&gt;&lt;font style=&quot;font-size: 20px;&quot;&gt;เทคโนโลยีที่ใช้&lt;/font&gt;&lt;/th&gt;&lt;th data-start=&quot;769&quot; data-end=&quot;787&quot;&gt;&lt;font style=&quot;font-size: 20px;&quot;&gt;และเหตุผลที่เลือก&lt;/font&gt;&lt;/th&gt;&lt;/tr&gt;&lt;/thead&gt;&lt;/table&gt;&lt;table&gt;&lt;tbody&gt;&lt;tr data-start=&quot;836&quot; data-end=&quot;904&quot;&gt;&lt;td&gt;&lt;strong data-start=&quot;838&quot; data-end=&quot;849&quot;&gt;&lt;font style=&quot;font-size: 20px;&quot;&gt;Backend&lt;/font&gt;&lt;/strong&gt;&lt;/td&gt;&lt;td&gt;&lt;font style=&quot;font-size: 20px;&quot;&gt;Node.js (Fastify)&lt;/font&gt;&lt;/td&gt;&lt;td&gt;&lt;font style=&quot;font-size: 20px;&quot;&gt;เพราะเร็วและรองรับ high concurrency&lt;/font&gt;&lt;/td&gt;&lt;/tr&gt;&lt;/tbody&gt;&lt;/table&gt;&lt;table&gt;&lt;tbody&gt;&lt;tr data-start=&quot;905&quot; data-end=&quot;980&quot;&gt;&lt;td&gt;&lt;strong data-start=&quot;907&quot; data-end=&quot;927&quot;&gt;&lt;font style=&quot;font-size: 20px;&quot;&gt;Database / Cache&lt;/font&gt;&lt;/strong&gt;&lt;/td&gt;&lt;td&gt;&lt;font style=&quot;font-size: 20px;&quot;&gt;&amp;nbsp;Redis&lt;/font&gt;&lt;/td&gt;&lt;td&gt;&lt;font style=&quot;font-size: 20px;&quot;&gt;เพราะใช้เก็บ session และลดการเรียก API ภายนอก&lt;/font&gt;&lt;/td&gt;&lt;/tr&gt;&lt;/tbody&gt;&lt;/table&gt;&lt;table&gt;&lt;tbody&gt;&lt;tr data-start=&quot;981&quot; data-end=&quot;1065&quot;&gt;&lt;td&gt;&lt;strong data-start=&quot;983&quot; data-end=&quot;1000&quot;&gt;&lt;font style=&quot;font-size: 20px;&quot;&gt;Message Queue&lt;/font&gt;&lt;/strong&gt;&lt;/td&gt;&lt;td&gt;&lt;font style=&quot;font-size: 20px;&quot;&gt;Kafka&lt;/font&gt;&lt;/td&gt;&lt;td&gt;&lt;font style=&quot;font-size: 20px;&quot;&gt;เพราะรองรับ high throughput และ event-driven architecture&lt;/font&gt;&lt;/td&gt;&lt;/tr&gt;&lt;/tbody&gt;&lt;/table&gt;&lt;table&gt;&lt;tbody&gt;&lt;tr data-start=&quot;1066&quot; data-end=&quot;1126&quot;&gt;&lt;td&gt;&lt;strong data-start=&quot;1068&quot; data-end=&quot;1085&quot;&gt;&lt;font style=&quot;font-size: 20px;&quot;&gt;Load Balancer&lt;/font&gt;&lt;/strong&gt;&lt;/td&gt;&lt;td&gt;&lt;font style=&quot;font-size: 20px;&quot;&gt;NGINX&lt;/font&gt;&lt;/td&gt;&lt;td&gt;&lt;font style=&quot;font-size: 20px;&quot;&gt;เพราะกระจายโหลดระหว่าง API Server&lt;/font&gt;&lt;/td&gt;&lt;/tr&gt;&lt;/tbody&gt;&lt;/table&gt;&lt;table&gt;&lt;tbody&gt;&lt;tr data-start=&quot;1127&quot; data-end=&quot;1198&quot;&gt;&lt;td&gt;&lt;strong data-start=&quot;1129&quot; data-end=&quot;1144&quot;&gt;&lt;font style=&quot;font-size: 20px;&quot;&gt;API Caching&lt;/font&gt;&lt;/strong&gt;&lt;/td&gt;&lt;td&gt;&lt;font style=&quot;font-size: 20px;&quot;&gt;Redis&amp;nbsp;&lt;/font&gt;&lt;/td&gt;&lt;td&gt;&lt;font style=&quot;font-size: 20px;&quot;&gt;เพราะลดการเรียก API ภายนอกซ้ำซ้อน&lt;/font&gt;&lt;/td&gt;&lt;/tr&gt;&lt;/tbody&gt;&lt;/table&gt;&lt;table&gt;&lt;tbody&gt;&lt;tr data-start=&quot;1199&quot; data-end=&quot;1271&quot;&gt;&lt;td&gt;&lt;strong data-start=&quot;1201&quot; data-end=&quot;1221&quot;&gt;&lt;font style=&quot;font-size: 20px;&quot;&gt;Containerization&lt;/font&gt;&lt;/strong&gt;&lt;/td&gt;&lt;td&gt;&lt;font style=&quot;font-size: 20px;&quot;&gt;Docker&amp;nbsp;&lt;/font&gt;&lt;/td&gt;&lt;td&gt;&lt;font style=&quot;font-size: 20px;&quot;&gt;เพราะทำให้ระบบ scale ได้ง่าย&lt;/font&gt;&lt;/td&gt;&lt;/tr&gt;&lt;/tbody&gt;&lt;/table&gt;" link="&lt;table&gt;&lt;thead data-start=&quot;740&quot; data-end=&quot;787&quot;&gt;&lt;tr data-start=&quot;740&quot; data-end=&quot;787&quot;&gt;&lt;th data-start=&quot;751&quot; data-end=&quot;769&quot;&gt;เทคโนโลยีที่ใช้&lt;/th&gt;&lt;th data-start=&quot;769&quot; data-end=&quot;787&quot;&gt;เหตุผลที่เลือก&lt;/th&gt;&lt;/tr&gt;&lt;/thead&gt;&lt;/table&gt;&lt;table&gt;&lt;tbody&gt;&lt;tr data-start=&quot;836&quot; data-end=&quot;904&quot;&gt;&lt;td&gt;&lt;strong data-start=&quot;838&quot; data-end=&quot;849&quot;&gt;Backend&lt;/strong&gt;&lt;/td&gt;&lt;td&gt;Node.js (Fastify)&lt;/td&gt;&lt;td&gt;เร็วและรองรับ high concurrency&lt;/td&gt;&lt;/tr&gt;&lt;/tbody&gt;&lt;/table&gt;&lt;table&gt;&lt;tbody&gt;&lt;tr data-start=&quot;905&quot; data-end=&quot;980&quot;&gt;&lt;td&gt;&lt;strong data-start=&quot;907&quot; data-end=&quot;927&quot;&gt;Database / Cache&lt;/strong&gt;&lt;/td&gt;&lt;td&gt;Redis&lt;/td&gt;&lt;td&gt;ใช้เก็บ session และลดการเรียก API ภายนอก&lt;/td&gt;&lt;/tr&gt;&lt;/tbody&gt;&lt;/table&gt;&lt;table&gt;&lt;tbody&gt;&lt;tr data-start=&quot;981&quot; data-end=&quot;1065&quot;&gt;&lt;td&gt;&lt;strong data-start=&quot;983&quot; data-end=&quot;1000&quot;&gt;Message Queue&lt;/strong&gt;&lt;/td&gt;&lt;td&gt;Kafka&lt;/td&gt;&lt;td&gt;รองรับ high throughput และ event-driven architecture&lt;/td&gt;&lt;/tr&gt;&lt;/tbody&gt;&lt;/table&gt;&lt;table&gt;&lt;tbody&gt;&lt;tr data-start=&quot;1066&quot; data-end=&quot;1126&quot;&gt;&lt;td&gt;&lt;strong data-start=&quot;1068&quot; data-end=&quot;1085&quot;&gt;Load Balancer&lt;/strong&gt;&lt;/td&gt;&lt;td&gt;NGINX&lt;/td&gt;&lt;td&gt;กระจายโหลดระหว่าง API Server&lt;/td&gt;&lt;/tr&gt;&lt;/tbody&gt;&lt;/table&gt;&lt;table&gt;&lt;tbody&gt;&lt;tr data-start=&quot;1127&quot; data-end=&quot;1198&quot;&gt;&lt;td&gt;&lt;strong data-start=&quot;1129&quot; data-end=&quot;1144&quot;&gt;API Caching&lt;/strong&gt;&lt;/td&gt;&lt;td&gt;Redis / Cloudflare&lt;/td&gt;&lt;td&gt;ลดการเรียก API ภายนอกซ้ำซ้อน&lt;/td&gt;&lt;/tr&gt;&lt;/tbody&gt;&lt;/table&gt;&lt;table&gt;&lt;tbody&gt;&lt;tr data-start=&quot;1199&quot; data-end=&quot;1271&quot;&gt;&lt;td&gt;&lt;strong data-start=&quot;1201&quot; data-end=&quot;1221&quot;&gt;Containerization&lt;/strong&gt;&lt;/td&gt;&lt;td&gt;Docker + Kubernetes&lt;/td&gt;&lt;td&gt;ทำให้ระบบ scale ได้ง่าย&lt;/td&gt;&lt;/tr&gt;&lt;/tbody&gt;&lt;/table&gt;" id="FjMfvr7qfYq_sYoSQsMK-5">
          <mxCell style="text;whiteSpace=wrap;html=1;fillColor=#fff2cc;strokeColor=#d6b656;" vertex="1" parent="1">
            <mxGeometry x="1410" y="640" width="730" height="310" as="geometry" />
          </mxCell>
        </UserObject>
        <mxCell id="FjMfvr7qfYq_sYoSQsMK-8" style="edgeStyle=orthogonalEdgeStyle;rounded=0;orthogonalLoop=1;jettySize=auto;html=1;entryX=0.5;entryY=0;entryDx=0;entryDy=0;endArrow=none;startFill=0;" edge="1" parent="1" source="FjMfvr7qfYq_sYoSQsMK-7" target="40jXn-iaDy37cglONEbA-1">
          <mxGeometry relative="1" as="geometry" />
        </mxCell>
        <mxCell id="FjMfvr7qfYq_sYoSQsMK-7" value="User" style="rounded=0;whiteSpace=wrap;html=1;" vertex="1" parent="1">
          <mxGeometry x="500" y="140" width="120" height="60" as="geometry" />
        </mxCell>
      </root>
    </mxGraphModel>
  </diagram>
</mxfile>
